<svg xmlns="http://www.w3.org/2000/svg" xmlns:xlink="http://www.w3.org/1999/xlink" width="1306.565" height="757.76" viewBox="0 0 1306.565 757.76">
  <defs>
    <clipPath id="clip-path">
      <path id="Tracé_435" data-name="Tracé 435" d="M0,621H672.566v-757.76H0Z" transform="translate(0 136.763)" fill="none" clip-rule="evenodd"/>
    </clipPath>
    <clipPath id="clip-path-2">
      <rect id="Rectangle_25" data-name="Rectangle 25" width="672.567" height="757.759" fill="none"/>
    </clipPath>
  </defs>
  <g id="logoEntete" transform="translate(24.565 120.237)">
    <g id="Groupe_70" data-name="Groupe 70">
      <g id="logo_symbole_deux_mains" data-name="logo   symbole deux mains" transform="translate(-24.565 16.526)">
        <g id="Groupe_69" data-name="Groupe 69" transform="translate(0 -136.763)" clip-path="url(#clip-path)">
          <g id="Groupe_68" data-name="Groupe 68">
            <g id="Groupe_67" data-name="Groupe 67">
              <g id="Groupe_66" data-name="Groupe 66" style="isolation: isolate">
                <g id="Groupe_65" data-name="Groupe 65">
                  <g id="Groupe_64" data-name="Groupe 64" clip-path="url(#clip-path-2)">
                    <path id="Tracé_430" data-name="Tracé 430" d="M50.5-47.139c-94.44,114.264,78.22,383.353,138.01,409.327,132.754,57.667,114.449,109.655,197.925,4.437C527.1,189.323,482.626,23.086,348.662-64.612,242.9-133.853,121.783-133.386,50.5-47.139Z" transform="translate(103.617 238.406)" fill="#60b4d8" stroke="#60b4d8" stroke-width="0.202"/>
                    <path id="Tracé_431" data-name="Tracé 431" d="M97.945-115.624l0,0c-.007-5.578.182-11.162-.085-16.726-.184-3.882.97-5.354,5.051-5.354h.1q42.415.2,84.835.012c3.776-.016,4.95,1.2,4.971,4.957.048,9.184.551,18.4.731,27.547.322,16.685,1.757,33.33,1.569,50.032a110.939,110.939,0,0,0,1.345,20.578c.739,4.16-.387,9.024,3.194,12.515h.006c5.3,4.959,10.438,10.113,15.947,14.833,10.2,8.737,20.207,17.584,28.859,27.963C254.526,32.81,264.658,44.972,279.38,51.9q15.131,6.911,30.3,13.748c3.464,1.56,6.476,3.53,6.7,7.756.251,4.818-2.384,8.027-6.489,9.984-7.163,3.413-14.669,3.844-22.475,2.6-18.149-2.9-34.246-10.476-49.476-20.467-8.319-5.457-18.913-5.572-23.218,7.778a93.962,93.962,0,0,0-1.457,54.28c5.707,21.122,14.133,41.32,21.512,61.876,3.541,9.862,6.762,19.944,6.587,30.737-.068,3.926-2.282,6.2-5.044,7.786-2.478,1.424-5.832,1.671-8.14-.458-3.5-3.226-7.542-6.108-9.571-10.649-7.732-17.3-15.637-34.53-22.99-51.991a264.578,264.578,0,0,0-12.31-25.254c-1.41-2.552-3.31-5.995-6.8-5.289-3.787.767-3.837,4.811-4.553,7.941a8.757,8.757,0,0,0-.039,2.3c.493,10.914.358,21.843.806,32.772.873,21.061,3.125,42.076,2.7,63.2-.123,6.06-1.412,11.351-6.976,14.73l-8.092.007c-7.715-5.175-10.072-12.611-10.553-21.634-1.11-20.807-1.983-41.644-4.275-62.382-.8-7.229.019-14.624-.269-21.927-.2-5.106-.426-10.329-3.669-14.746-1.169-1.6-2.4-3.027-4.644-2.893-2.494.149-2.921,2.046-3.51,3.931-3.15,10.1-3.8,20.631-5.392,30.991-3.009,19.609-3.9,39.546-9.3,58.785-1.966,7-8.415,11.408-14.632,9.8-4.965-1.284-7.116-4.575-7.371-9.59-.686-13.521,2.243-26.654,4.159-39.882s3.849-26.443,5.254-39.745c.728-6.9,1.15-13.609-.047-20.513-1.357-7.837-6.682-10.152-13.283-5.483-10.356,7.328-16.278,18.2-22.88,28.482-5.989,9.326-11.059,19.265-17.352,28.368-5.474,7.914-11.821,9.961-18.246,1.009v-9.244c10.461-26.5,25.29-50.978,35.86-77.433,4.82-4.275,5.138-10.538,6.82-16.1l-.078.261c-1.62,5.493-2,11.625-6.741,15.835.762-4.508,1.87-8.989,2.219-13.528,1.6-20.737,5.493-40.976,14.348-59.872A119.788,119.788,0,0,0,98.149-38.413C97.262-64.121,97.945-89.885,97.945-115.624ZM275.115,53.02a13.2,13.2,0,0,0,2.267.015,2.862,2.862,0,0,0,1.993-1.128C278.246,53.375,276.608,53.078,275.115,53.02ZM156.25,5.233a82.462,82.462,0,0,0-9.851.643,85.4,85.4,0,0,0-11.427,2.21l-.251.066q-2.774.733-5.465,1.6c-16.7,5.4-30.761,14.9-39.437,31.561,8.676-16.66,22.733-26.158,39.437-31.561q2.689-.869,5.465-1.6h0l.252-.067A88.876,88.876,0,0,1,146.4,5.876a85.524,85.524,0,0,1,9.851-.643,80.644,80.644,0,0,1,21.419,2.795l.248.067.363.1.276.077.317.089.23.067.335.1.324.1.316.094.311.094.467.143.1.031.248.078.379.12.281.092.39.128.239.079.585.2.234.081.414.145.239.083.541.194.073.026.081.029.544.2.213.08.463.175.18.068.62.239.143.057.5.2.187.075.563.229.072.029.637.265.155.065.512.219.148.063.643.28.044.019.6.266.151.068.563.257.08.036.648.3.108.05.546.259.136.065.642.312.642.317.131.066.55.277.1.05.647.333.07.036.568.3.138.074.614.327.017.009.642.35.127.07.526.293.13.072.634.359.036.02.586.336.154.09.531.311.1.057.62.368.135.082.493.3.166.1.613.377q-.306-.19-.613-.377l-.07-.043-.1-.058-.207-.127-.286-.172-.094-.057-.04-.025-.62-.368-.025-.015L200.6,17.8l-.346-.2-.185-.107-.082-.048-.072-.041-.157-.091-.429-.245-.036-.02c-.211-.12-.421-.24-.634-.359l-.047-.027-.083-.045-.262-.147L198,16.316l-.082-.045-.045-.025c-.214-.118-.429-.234-.642-.35l-.465-.249-.166-.087-.065-.035-.073-.039-.2-.1-.371-.194-.052-.027-.018-.009c-.215-.112-.432-.223-.647-.333l-.03-.016-.069-.035-.318-.161-.232-.115-.076-.039-.055-.027q-.642-.319-1.285-.629l-.056-.027-.08-.038-.233-.111-.313-.148-.074-.036-.034-.015c-.215-.1-.43-.2-.648-.3l-.02-.009-.059-.027-.371-.17-.192-.086-.08-.036-.072-.032-.164-.074-.433-.192-.035-.016-.009,0-.643-.28-.053-.022-.1-.04-.259-.111-.253-.108-.1-.041-.057-.024c-.212-.089-.423-.177-.637-.265l-.013-.006-.058-.024-.416-.169-.147-.059-.087-.035-.1-.04-.178-.071-.324-.128-.108-.043L186.679,11l-.62-.239-.054-.021-.127-.047-.271-.1-.192-.072-.122-.046-.091-.034-.11-.04-.434-.159-.078-.028-.075-.027-.443-.159-.1-.035-.1-.035-.141-.048-.179-.064-.234-.081-.16-.055-.074-.026-.585-.2-.057-.019-.182-.059-.26-.086-.13-.042-.146-.048-.136-.044-.106-.034-.272-.086L181,9l-.143-.045-.42-.13-.047-.013-.11-.035-.2-.059-.163-.049-.154-.045-.2-.062-.12-.035-.044-.012-.291-.084-.267-.077-.28-.078-.205-.058-.071-.019-.167-.047-.2-.053-.09-.025-.158-.043a80.565,80.565,0,0,0-21.018-2.8Zm46.9,14.1-.234-.147ZM97.945-115.624a211.609,211.609,0,0,1,29.16,41.117C138-53.9,152.8-37.452,174.668-28.194a84.736,84.736,0,0,0,24.986,6.132l0,0A84.787,84.787,0,0,1,174.67-28.2C152.8-37.455,138.005-53.9,127.11-74.509A211.583,211.583,0,0,0,97.945-115.624Z" transform="translate(155.948 132.477)" fill="#fff"/>
                    <path id="Tracé_432" data-name="Tracé 432" d="M97.945-115.624l0,0c-.007-5.578.182-11.162-.085-16.726-.184-3.882.97-5.354,5.051-5.354h.1q42.415.2,84.835.012c3.776-.016,4.95,1.2,4.971,4.957.048,9.184.551,18.4.731,27.547.322,16.685,1.757,33.33,1.569,50.032a110.939,110.939,0,0,0,1.345,20.578c.739,4.16-.387,9.024,3.194,12.515h.006c5.3,4.959,10.438,10.113,15.947,14.833,10.2,8.737,20.207,17.584,28.859,27.963C254.526,32.81,264.658,44.972,279.38,51.9q15.131,6.911,30.3,13.748c3.464,1.56,6.476,3.53,6.7,7.756.251,4.818-2.384,8.027-6.489,9.984-7.163,3.413-14.669,3.844-22.475,2.6-18.149-2.9-34.246-10.476-49.476-20.467-8.319-5.457-18.913-5.572-23.218,7.778a93.962,93.962,0,0,0-1.457,54.28c5.707,21.122,14.133,41.32,21.512,61.876,3.541,9.862,6.762,19.944,6.587,30.737-.068,3.926-2.282,6.2-5.044,7.786-2.478,1.424-5.832,1.671-8.14-.458-3.5-3.226-7.542-6.108-9.571-10.649-7.732-17.3-15.637-34.53-22.99-51.991a264.578,264.578,0,0,0-12.31-25.254c-1.41-2.552-3.31-5.995-6.8-5.289-3.787.767-3.837,4.811-4.553,7.941a8.757,8.757,0,0,0-.039,2.3c.493,10.914.358,21.843.806,32.772.873,21.061,3.125,42.076,2.7,63.2-.123,6.06-1.412,11.351-6.976,14.73l-8.092.007c-7.715-5.175-10.072-12.611-10.553-21.634-1.11-20.807-1.983-41.644-4.275-62.382-.8-7.229.019-14.624-.269-21.927-.2-5.106-.426-10.329-3.669-14.746-1.169-1.6-2.4-3.027-4.644-2.893-2.494.149-2.921,2.046-3.51,3.931-3.15,10.1-3.8,20.631-5.392,30.991-3.009,19.609-3.9,39.546-9.3,58.785-1.966,7-8.415,11.408-14.632,9.8-4.965-1.284-7.116-4.575-7.371-9.59-.686-13.521,2.243-26.654,4.159-39.882s3.849-26.443,5.254-39.745c.728-6.9,1.15-13.609-.047-20.513-1.357-7.837-6.682-10.152-13.283-5.483-10.356,7.328-16.278,18.2-22.88,28.482-5.989,9.326-11.059,19.265-17.352,28.368-5.474,7.914-11.821,9.961-18.246,1.009v-9.244c10.461-26.5,25.29-50.978,35.86-77.433,4.82-4.275,5.138-10.538,6.82-16.1l-.078.261c-1.62,5.493-2,11.625-6.741,15.835.762-4.508,1.87-8.989,2.219-13.528,1.6-20.737,5.493-40.976,14.348-59.872A119.788,119.788,0,0,0,98.149-38.413C97.262-64.121,97.945-89.885,97.945-115.624ZM275.115,53.02a13.2,13.2,0,0,0,2.267.015,2.862,2.862,0,0,0,1.993-1.128C278.246,53.375,276.608,53.078,275.115,53.02ZM156.25,5.233a82.462,82.462,0,0,0-9.851.643,85.4,85.4,0,0,0-11.427,2.21l-.251.066q-2.774.733-5.465,1.6c-16.7,5.4-30.761,14.9-39.437,31.561,8.676-16.66,22.733-26.158,39.437-31.561q2.689-.869,5.465-1.6h0l.252-.067A88.876,88.876,0,0,1,146.4,5.876a85.524,85.524,0,0,1,9.851-.643,80.644,80.644,0,0,1,21.419,2.795l.248.067.363.1.276.077.317.089.23.067.335.1.324.1.316.094.311.094.467.143.1.031.248.078.379.12.281.092.39.128.239.079.585.2.234.081.414.145.239.083.541.194.073.026.081.029.544.2.213.08.463.175.18.068.62.239.143.057.5.2.187.075.563.229.072.029.637.265.155.065.512.219.148.063.643.28.044.019.6.266.151.068.563.257.08.036.648.3.108.05.546.259.136.065.642.312.642.317.131.066.55.277.1.05.647.333.07.036.568.3.138.074.614.327.017.009.642.35.127.07.526.293.13.072.634.359.036.02.586.336.154.09.531.311.1.057.62.368.135.082.493.3.166.1.613.377q-.306-.19-.613-.377l-.07-.043-.1-.058-.207-.127-.286-.172-.094-.057-.04-.025-.62-.368-.025-.015L200.6,17.8l-.346-.2-.185-.107-.082-.048-.072-.041-.157-.091-.429-.245-.036-.02c-.211-.12-.421-.24-.634-.359l-.047-.027-.083-.045-.262-.147L198,16.316l-.082-.045-.045-.025c-.214-.118-.429-.234-.642-.35l-.465-.249-.166-.087-.065-.035-.073-.039-.2-.1-.371-.194-.052-.027-.018-.009c-.215-.112-.432-.223-.647-.333l-.03-.016-.069-.035-.318-.161-.232-.115-.076-.039-.055-.027q-.642-.319-1.285-.629l-.056-.027-.08-.038-.233-.111-.313-.148-.074-.036-.034-.015c-.215-.1-.43-.2-.648-.3l-.02-.009-.059-.027-.371-.17-.192-.086-.08-.036-.072-.032-.164-.074-.433-.192-.035-.016-.009,0-.643-.28-.053-.022-.1-.04-.259-.111-.253-.108-.1-.041-.057-.024c-.212-.089-.423-.177-.637-.265l-.013-.006-.058-.024-.416-.169-.147-.059-.087-.035-.1-.04-.178-.071-.324-.128-.108-.043L186.679,11l-.62-.239-.054-.021-.127-.047-.271-.1-.192-.072-.122-.046-.091-.034-.11-.04-.434-.159-.078-.028-.075-.027-.443-.159-.1-.035-.1-.035-.141-.048-.179-.064-.234-.081-.16-.055-.074-.026-.585-.2-.057-.019-.182-.059-.26-.086-.13-.042-.146-.048-.136-.044-.106-.034-.272-.086L181,9l-.143-.045-.42-.13-.047-.013-.11-.035-.2-.059-.163-.049-.154-.045-.2-.062-.12-.035-.044-.012-.291-.084-.267-.077-.28-.078-.205-.058-.071-.019-.167-.047-.2-.053-.09-.025-.158-.043a80.565,80.565,0,0,0-21.018-2.8Zm46.9,14.1-.234-.147ZM97.945-115.624a211.609,211.609,0,0,1,29.16,41.117C138-53.9,152.8-37.452,174.668-28.194a84.736,84.736,0,0,0,24.986,6.132l0,0A84.787,84.787,0,0,1,174.67-28.2C152.8-37.455,138.005-53.9,127.11-74.509A211.583,211.583,0,0,0,97.945-115.624Z" transform="translate(155.948 132.477)" fill="none" stroke="rgba(0,0,0,0)" stroke-miterlimit="10" stroke-width="0.202"/>
                    <path id="Tracé_433" data-name="Tracé 433" d="M140.757,151.743q.879.822,1.761,1.643l-.881-.821Zm23.772,55.312a86.225,86.225,0,0,1,15.55,12.806c9.16,9.555,15.813,20.924,20.718,33.593-4.905-12.669-11.558-24.038-20.718-33.593A86.225,86.225,0,0,0,164.529,207.055Zm0,0h0a83.711,83.711,0,0,0-21.806-9.835,83.8,83.8,0,0,1,21.806,9.837Zm48.658-29.245c18.436-2.112,34.9-8.984,46.871-24.645-11.975,15.66-28.434,22.528-46.871,24.645q-1.522.175-3.062.307c-24.884,2.138-46.581-5.982-65.025-22.37,18.442,16.386,40.138,24.515,65.025,22.371Q211.665,177.985,213.187,177.809Zm-68.344-22.291-.205-.185Zm-6.717-6.25q-8.125-7.679-16.073-15.546l-1.229-1.209-1.715-1.692q1.471,1.453,2.944,2.9c5.6,5.509,11.234,10.988,16.949,16.373Zm-22.442-21.833c-10.091-9.978-22.642-14.761-36.149-17.643-1.463-.313-3.023-.889-4.387.364q-13.719-9.409-27.483-18.751c-3.144-2.132-5.773-4.59-5.267-8.792.58-4.79,3.726-7.5,8.108-8.721,7.643-2.131,15.11-1.266,22.586,1.3,17.381,5.976,31.936,16.207,45.222,28.667,7.256,6.8,17.673,8.739,24.209-3.673A93.971,93.971,0,0,0,153.286,46.97c-1.992-21.788-6.822-43.134-10.558-64.653-1.795-10.324-3.234-20.809-1.207-31.412.738-3.856,3.31-5.717,6.3-6.8,2.686-.976,6.033-.643,7.941,1.851,2.9,3.78,6.379,7.313,7.6,12.135,4.644,18.372,9.47,36.7,13.713,55.168a264.554,264.554,0,0,0,7.786,26.994c.951,2.756,2.231,6.475,5.787,6.378,3.862-.1,4.607-4.08,5.85-7.04a8.791,8.791,0,0,0,.435-2.263c1.389-10.836,3.4-21.579,4.838-32.422,2.76-20.9,4.153-41.987,8.205-62.719,1.164-5.949,3.343-10.939,9.4-13.312l7.972,1.391c6.711,6.424,7.753,14.154,6.676,23.126-2.483,20.687-5.2,41.365-6.51,62.188-.455,7.259-2.531,14.4-3.5,21.647-.68,5.064-1.354,10.249,1.08,15.157.877,1.778,1.846,3.394,4.078,3.649,2.484.281,3.229-1.513,4.133-3.27,4.838-9.4,7.292-19.671,10.638-29.6,6.335-18.8,10.636-38.288,19.261-56.313,3.14-6.555,10.25-9.791,16.1-7.139,4.672,2.117,6.226,5.73,5.615,10.714-1.649,13.438-6.792,25.871-10.952,38.574s-8.338,25.388-12.006,38.251c-1.9,6.674-3.473,13.209-3.479,20.216-.011,7.953,4.838,11.149,12.142,7.683,11.462-5.439,19.165-15.133,27.434-24.127,7.5-8.158,14.2-17.076,21.969-24.963,6.751-6.856,13.357-7.781,18.147,2.142l-1.59,9.108c-14.858,24.311-33.674,45.878-48.632,70.119-1.526,4.31-3.386,8.534-4.511,12.945-5.14,20.155-12.454,39.423-24.425,56.515a119.783,119.783,0,0,0-20.865,53.4c-3.546,25.478-8.646,50.741-13.069,76.1-.953,5.495-2.1,10.964-2.791,16.49-.486,3.856-1.875,5.107-5.9,4.406l-.1-.015q-41.748-7.487-83.561-14.593c-3.723-.634-4.67-2.03-4.045-5.737,1.531-9.056,2.62-18.22,4.014-27.263,2.551-16.492,4-33.136,7.053-49.558a110.824,110.824,0,0,0,2.212-20.5c-.011-4.223,1.939-8.822-.994-12.879-4.367-5.8-8.544-11.756-13.16-17.353-8.545-10.36-16.884-20.8-23.623-32.506-7.839-13.628-15.729-27.35-29.04-36.709,1.364-1.253,2.925-.676,4.387-.364C93.043,112.676,105.591,117.456,115.684,127.435Z" transform="translate(192.223 434.784)" fill="#fff"/>
                    <path id="Tracé_434" data-name="Tracé 434" d="M140.757,151.743q.879.822,1.761,1.643l-.881-.821Zm23.772,55.312a86.225,86.225,0,0,1,15.55,12.806c9.16,9.555,15.813,20.924,20.718,33.593-4.905-12.669-11.558-24.038-20.718-33.593A86.225,86.225,0,0,0,164.529,207.055Zm0,0h0a83.711,83.711,0,0,0-21.806-9.835,83.8,83.8,0,0,1,21.806,9.837Zm48.658-29.245c18.436-2.112,34.9-8.984,46.871-24.645-11.975,15.66-28.434,22.528-46.871,24.645q-1.522.175-3.062.307c-24.884,2.138-46.581-5.982-65.025-22.37,18.442,16.386,40.138,24.515,65.025,22.371Q211.665,177.985,213.187,177.809Zm-68.344-22.291-.205-.185Zm-6.717-6.25q-8.125-7.679-16.073-15.546l-1.229-1.209-1.715-1.692q1.471,1.453,2.944,2.9c5.6,5.509,11.234,10.988,16.949,16.373Zm-22.442-21.833c-10.091-9.978-22.642-14.761-36.149-17.643-1.463-.313-3.023-.889-4.387.364q-13.719-9.409-27.483-18.751c-3.144-2.132-5.773-4.59-5.267-8.792.58-4.79,3.726-7.5,8.108-8.721,7.643-2.131,15.11-1.266,22.586,1.3,17.381,5.976,31.936,16.207,45.222,28.667,7.256,6.8,17.673,8.739,24.209-3.673A93.971,93.971,0,0,0,153.286,46.97c-1.992-21.788-6.822-43.134-10.558-64.653-1.795-10.324-3.234-20.809-1.207-31.412.738-3.856,3.31-5.717,6.3-6.8,2.686-.976,6.033-.643,7.941,1.851,2.9,3.78,6.379,7.313,7.6,12.135,4.644,18.372,9.47,36.7,13.713,55.168a264.554,264.554,0,0,0,7.786,26.994c.951,2.756,2.231,6.475,5.787,6.378,3.862-.1,4.607-4.08,5.85-7.04a8.791,8.791,0,0,0,.435-2.263c1.389-10.836,3.4-21.579,4.838-32.422,2.76-20.9,4.153-41.987,8.205-62.719,1.164-5.949,3.343-10.939,9.4-13.312l7.972,1.391c6.711,6.424,7.753,14.154,6.676,23.126-2.483,20.687-5.2,41.365-6.51,62.188-.455,7.259-2.531,14.4-3.5,21.647-.68,5.064-1.354,10.249,1.08,15.157.877,1.778,1.846,3.394,4.078,3.649,2.484.281,3.229-1.513,4.133-3.27,4.838-9.4,7.292-19.671,10.638-29.6,6.335-18.8,10.636-38.288,19.261-56.313,3.14-6.555,10.25-9.791,16.1-7.139,4.672,2.117,6.226,5.73,5.615,10.714-1.649,13.438-6.792,25.871-10.952,38.574s-8.338,25.388-12.006,38.251c-1.9,6.674-3.473,13.209-3.479,20.216-.011,7.953,4.838,11.149,12.142,7.683,11.462-5.439,19.165-15.133,27.434-24.127,7.5-8.158,14.2-17.076,21.969-24.963,6.751-6.856,13.357-7.781,18.147,2.142l-1.59,9.108c-14.858,24.311-33.674,45.878-48.632,70.119-1.526,4.31-3.386,8.534-4.511,12.945-5.14,20.155-12.454,39.423-24.425,56.515a119.783,119.783,0,0,0-20.865,53.4c-3.546,25.478-8.646,50.741-13.069,76.1-.953,5.495-2.1,10.964-2.791,16.49-.486,3.856-1.875,5.107-5.9,4.406l-.1-.015q-41.748-7.487-83.561-14.593c-3.723-.634-4.67-2.03-4.045-5.737,1.531-9.056,2.62-18.22,4.014-27.263,2.551-16.492,4-33.136,7.053-49.558a110.824,110.824,0,0,0,2.212-20.5c-.011-4.223,1.939-8.822-.994-12.879-4.367-5.8-8.544-11.756-13.16-17.353-8.545-10.36-16.884-20.8-23.623-32.506-7.839-13.628-15.729-27.35-29.04-36.709,1.364-1.253,2.925-.676,4.387-.364C93.043,112.676,105.591,117.456,115.684,127.435Z" transform="translate(192.223 434.784)" fill="none" stroke="rgba(0,0,0,0)" stroke-miterlimit="10" stroke-width="0.202"/>
                  </g>
                </g>
              </g>
            </g>
          </g>
        </g>
      </g>
    </g>
  </g>
</svg>
